<svg xmlns="http://www.w3.org/2000/svg" viewBox="0 0 30.46 32.55"><title>Asset 14</title><g id="Layer_2" data-name="Layer 2"><g id="Layer_1-2" data-name="Layer 1"><path d="M16.06,3.69c-.32-.74-.87-1.22-1.27-1.22s-1,.56-1.27,1.22l-1,2.43H17Zm1.48,3.65H12l-1,2.43h7.47ZM19,11H10.56l-1,2.43H20Zm2,4.86-.49-1.22H9.07l-.49,1.22a.83.83,0,0,0,.81,1.22H20.19C20.89,17.06,21.34,16.51,21,15.85Zm-7.46,6.08h2.54V18.28H13.52Z" style="fill:#fff"/><path d="M16.06,3.69c-.32-.74-.87-1.22-1.27-1.22s-1,.56-1.27,1.22l-1,2.43H17Zm1.48,3.65H12l-1,2.43h7.47ZM19,11H10.56l-1,2.43H20Zm2,4.86-.49-1.22H9.07l-.49,1.22a.83.83,0,0,0,.81,1.22H20.19C20.89,17.06,21.34,16.51,21,15.85Zm-7.46,6.08h2.54V18.28H13.52Z" style="fill:none;stroke:#000;stroke-miterlimit:10"/><circle cx="14.8" cy="12.2" r="11.7" style="fill:none;stroke:#000;stroke-linecap:round;stroke-linejoin:round"/><text transform="translate(0 29.85)" style="font-size:7.406129837036133px;font-family:AmericanTypewriter, American Typewriter">exImage</text></g></g></svg>