<svg xmlns="http://www.w3.org/2000/svg" xmlns:xlink="http://www.w3.org/1999/xlink" viewBox="0 0 460 478.79"><defs><radialGradient id="radial-gradient" cx="162.7" cy="317.46" r="128.11" gradientTransform="matrix(1.77, -0.18, 0.11, 0.94, -111.94, -37.38)" gradientUnits="userSpaceOnUse"><stop offset="0" stop-color="#4e9a06"/><stop offset="1" stop-color="#73d216"/></radialGradient></defs><title>Asset 3</title><g id="Layer_2" data-name="Layer 2"><g id="Layer_1-2" data-name="Layer 1"><path d="M360.59,134.28s-65.23,59.13-89.49,104.3l-24.29,45.2c-4.47-85.87,9.1-151.91,25.92-199.2a35.37,35.37,0,0,1-.5-6.92c-.81-9.39-.75-18.81-.71-28.27a220.94,220.94,0,0,0-18.67,32.7c-17.66,38.67-26,78.48-27.2,75.84C201.29,103.59,173.62,87.11,156,77a79.43,79.43,0,0,1-1,11.53c23.24,30.06,57.47,32.11,51.52,71.18,12.51,50.05-2.37,106-4,104.32-71.27-73-132.4-77.65-132.4-77.65,203.49,118.41,94,280.59,94,280.59,19.92,17.17,100.62,15.08,117.9-2.59C282.08,464.38,226.64,326.9,360.59,134.28Z" style="fill:#664200;opacity:0.200000002980232;isolation:isolate"/><path id="path5235" d="M229.06,0c-66.25.81-122.4,41.16-144.3,97.32C36.38,104-.58,144.25,0,192.34c.64,52.3,45.44,94.2,100,93.53a101.84,101.84,0,0,0,45.49-11.25A161.7,161.7,0,0,0,307,279.83a102.17,102.17,0,0,0,54.56,14.85c55-.67,99-44,98.38-96.63-.56-45.84-34.81-83.74-79.91-92.36C360.39,43.81,299.94-.86,229.06,0Z" style="opacity:0.200000002980232;isolation:isolate;fill:url(#radial-gradient)"/><ellipse cx="227.17" cy="96.61" rx="81.18" ry="83.12" style="fill:#fcfcfc;stroke:#fff;stroke-miterlimit:10;stroke-width:2px;opacity:0.899999976158142;isolation:isolate"/><ellipse cx="109.46" cy="211.6" rx="63.19" ry="62.26" style="fill:#fcfcfc;stroke:#fff;stroke-miterlimit:10;stroke-width:4px;opacity:0.800000011920929;isolation:isolate"/><ellipse cx="345.74" cy="167.37" rx="52.28" ry="53.77" style="fill:#fcfcfc;stroke:#fff;stroke-miterlimit:10;stroke-width:4px;opacity:0.899999976158142;isolation:isolate"/><text transform="translate(73.45 216.38)" style="isolation:isolate;font-size:11.917289733886719px;fill:orange;font-family:MyriadPro-Regular, Myriad Pro">Exp<tspan x="18.16" y="0" style="letter-spacing:-0.009997291973293607em">r</tspan><tspan x="21.94" y="0" style="letter-spacing:-0.00004097250808726888em">ession</tspan><tspan x="53.29" y="0" style="letter-spacing:-0.04101348059535615em"> </tspan><tspan x="55.33" y="0" style="letter-spacing:-0.0709643840071497em">T</tspan><tspan x="60.41" y="0">ools</tspan></text><text transform="translate(192.62 100.19)" style="isolation:isolate;font-size:11.917289733886719px;fill:orange;font-family:MyriadPro-Regular, Myriad Pro"><tspan style="letter-spacing:0.004957673478559535em">G</tspan><tspan x="7.76" y="0" style="letter-spacing:0.00004097250808726888em">enome</tspan><tspan x="42.79" y="0" style="letter-spacing:-0.040972508087268884em"> </tspan><tspan x="44.83" y="0" style="letter-spacing:-0.07100535651523697em">T</tspan><tspan x="49.91" y="0">ools</tspan></text><text transform="translate(315.66 170.2)" style="isolation:isolate;font-size:11.917289733886719px;fill:orange;font-family:MyriadPro-Regular, Myriad Pro"><tspan style="letter-spacing:-0.0029909930903706285em">A</tspan><tspan x="7.26" y="0">nal</tspan><tspan x="22.43" y="0" style="letter-spacing:-0.005981986180741257em">y</tspan><tspan x="27.97" y="0">sis</tspan><tspan x="40.2" y="0" style="letter-spacing:-0.04101348059535615em"> </tspan><tspan x="42.23" y="0" style="letter-spacing:-0.07100535651523697em">T</tspan><tspan x="47.31" y="0" style="letter-spacing:0.00004097250808726888em">ools</tspan></text></g></g></svg>