<svg xmlns="http://www.w3.org/2000/svg" viewBox="0 0 24.69 34.51"><title>Asset 12</title><g id="Layer_2" data-name="Layer 2"><g id="Layer_1-2" data-name="Layer 1"><circle cx="12.37" cy="12.21" r="11.71" style="fill:none;stroke:#000;stroke-linecap:round;stroke-linejoin:round"/><path d="M8.42,9.36,6.89,7.58C6.51,6.49,8.18,5.92,9,5.72c2.21-.57,3.9.17,3.9-2.56A12.38,12.38,0,0,0,6.12,5.07C3.9,6.77,6.69,8.85,8.42,9.36Z" style="fill:#f9fbfd;stroke:#000;stroke-miterlimit:10"/><path d="M17.28,6.7C17.8,7.3,19,8.08,18.85,9c-.17,1.12-1.75,1.42-2.63,1.61-2.7.61-5.53.51-8.15,1.51C5.23,13.21,4.49,15.91,7.89,17c-.36-.52-1.24-1.23-1-1.94.36-1.06,2-1.31,2.94-1.5,2.83-.57,5.81-.5,8.5-1.79C21.46,10.25,20.08,7.51,17.28,6.7Z" style="fill:#f9fbfd;stroke:#000;stroke-miterlimit:10"/><path d="M17.63,15.2c.35.55,1.19,1.24,1.14,1.95-.14,2-4.69,2.12-6.1,2.12V21.4c2.12-.09,5-.66,6.73-2C21.34,17.79,19.51,15.64,17.63,15.2Z" style="fill:#f9fbfd;stroke:#000;stroke-miterlimit:10"/><path d="M16.15,18.8l.12.06Z" style="fill:#8f9eb4;stroke:#000;stroke-miterlimit:10"/><text transform="translate(0 31.81)" style="font-size:7.411499977111816px;font-family:AmericanTypewriter, American Typewriter">BLAST</text></g></g></svg>