<svg xmlns="http://www.w3.org/2000/svg" viewBox="0 0 32.71 32.53"><title>Asset 16</title><g id="Layer_2" data-name="Layer 2"><g id="Layer_1-2" data-name="Layer 1"><path d="M10.54,18.67A3.12,3.12,0,0,1,8.47,18c-.88-.74-1-2-.3-3.64A13.72,13.72,0,0,1,12,9.62C14.58,7.44,17.69,6,19.91,6A3.13,3.13,0,0,1,22,6.66c.88.74,1,2,.3,3.64a13.72,13.72,0,0,1-3.82,4.78C15.88,17.26,12.76,18.67,10.54,18.67ZM19.91,6.28c-2.15,0-5.17,1.38-7.71,3.52a13.48,13.48,0,0,0-3.75,4.69c-.64,1.51-.56,2.7.23,3.37a2.81,2.81,0,0,0,1.85.55c2.15,0,5.17-1.38,7.71-3.52A13.48,13.48,0,0,0,22,10.21c.64-1.51.56-2.7-.23-3.37A2.82,2.82,0,0,0,19.91,6.28Z" style="fill:#fff;stroke:#000;stroke-miterlimit:10"/><path d="M19.91,18.67c-2.22,0-5.33-1.41-7.93-3.59A13.73,13.73,0,0,1,8.17,10.3c-.69-1.61-.58-2.9.3-3.64A3.13,3.13,0,0,1,10.54,6c2.22,0,5.34,1.41,7.93,3.59a13.71,13.71,0,0,1,3.82,4.78C23,16,22.87,17.3,22,18A3.13,3.13,0,0,1,19.91,18.67ZM10.54,6.28a2.81,2.81,0,0,0-1.85.55c-.79.67-.87,1.87-.23,3.37a13.47,13.47,0,0,0,3.75,4.69c2.54,2.14,5.56,3.52,7.71,3.52a2.81,2.81,0,0,0,1.86-.55c.79-.67.87-1.86.23-3.37A13.48,13.48,0,0,0,18.25,9.8C15.71,7.66,12.69,6.28,10.54,6.28Z" style="fill:#fff;stroke:#000;stroke-miterlimit:10"/><ellipse cx="15.23" cy="12.35" rx="9.4" ry="3.73" style="fill:none;stroke:#000;stroke-miterlimit:10;opacity:0.9"/><path d="M8.45,14.49a9.49,9.49,0,0,1,.93-1.65v-.49A10.17,10.17,0,0,0,8.17,14.4a4.76,4.76,0,0,0-.44,2H8A4.52,4.52,0,0,1,8.45,14.49Z" style="fill:#fff;stroke:#000;stroke-miterlimit:10"/><path d="M18.25,9.8a17.84,17.84,0,0,1,1.43,1.34h.39a18.12,18.12,0,0,0-1.6-1.52,18.61,18.61,0,0,0-2.67-1.88h-.54A18.26,18.26,0,0,1,18.25,9.8Z" style="fill:#fff;stroke:#000;stroke-miterlimit:10"/><circle cx="14.82" cy="11.95" r="11.45" style="fill:none;stroke:#000;stroke-linecap:round;stroke-linejoin:round"/><text transform="translate(0 29.89)" style="font-size:7.248270034790039px;font-family:AmericanTypewriter, American Typewriter">ComPlEX</text></g></g></svg>