<svg xmlns="http://www.w3.org/2000/svg" viewBox="0 0 37.49 32.56"><title>Asset 11</title><g id="Layer_2" data-name="Layer 2"><g id="Layer_1-2" data-name="Layer 1"><circle cx="18.78" cy="11.96" r="11.46" style="fill:none;stroke:#000;stroke-linecap:round;stroke-linejoin:round"/><path d="M22.68,6.86a2,2,0,0,0-2,1.89,2,2,0,0,0,4.05,0A2,2,0,0,0,22.68,6.86Zm0,2.83a.94.94,0,1,1,1-.94A1,1,0,0,1,22.68,9.69Zm2-4.71H19.18a1.73,1.73,0,0,0-1.2.32l-8,7.45a.9.9,0,0,0,0,1.34l6.13,5.7a1,1,0,0,0,.72.28,1.05,1.05,0,0,0,.72-.28l8-7.46a1.52,1.52,0,0,0,.34-1.22v-5A1.19,1.19,0,0,0,24.65,5Zm.18,6.69-8,7.45-6.12-5.7,8-7.45a1.61,1.61,0,0,1,.49,0h5.47a.21.21,0,0,1,.22.2v5A1.88,1.88,0,0,1,24.83,11.66Z" style="fill:none;stroke:#000;stroke-miterlimit:10"/><text transform="translate(0 29.92)" style="font-size:7.250899791717529px;font-family:AmericanTypewriter, American Typewriter">GenePages</text></g></g></svg>