<svg xmlns="http://www.w3.org/2000/svg" viewBox="0 0 39 53.34"><title>exnet</title><g id="Layer_2" data-name="Layer 2"><g id="Layer_1-2" data-name="Layer 1"><circle cx="19.5" cy="19.5" r="19" style="fill:none;stroke:#000;stroke-linecap:round;stroke-linejoin:round"/><text transform="translate(3.88 48.96)" style="isolation:isolate;font-size:12px;font-family:AmericanTypewriter, American Typewriter">ex<tspan x="13.98" y="0" style="letter-spacing:-0.032023111979166664em">N</tspan><tspan x="22.76" y="0">et</tspan></text><path d="M29.6,6.1a2.8,2.8,0,0,0-2.8,2.8,3.53,3.53,0,0,0,.3,1.4l-4.6,4.6a3.71,3.71,0,0,0-4.6,0l-3.6-3.6a1.69,1.69,0,0,0,.3-1,1.9,1.9,0,1,0-1.9,1.9,1.69,1.69,0,0,0,1-.3l3.6,3.6a3.71,3.71,0,0,0,0,4.6l-6,6a2.64,2.64,0,0,0-1.9-.7,2.8,2.8,0,1,0,2.8,2.8,3.19,3.19,0,0,0-.3-1.4L18,20.7a4.17,4.17,0,0,0,1.8.8v4.8a2.9,2.9,0,0,0-2.4,2.8,2.8,2.8,0,1,0,3.2-2.8V21.5a3.7,3.7,0,0,0,1.8-.8L26,24.3a1.69,1.69,0,0,0-.3,1,1.9,1.9,0,1,0,1.9-1.9,1.69,1.69,0,0,0-1,.3L23,20.1a3.71,3.71,0,0,0,0-4.6l4.6-4.6a2.64,2.64,0,0,0,1.9.7,2.8,2.8,0,0,0,2.8-2.8,2.69,2.69,0,0,0-2.7-2.7Zm-18,4.3a.9.9,0,1,1,.9.9.9.9,0,0,1-.9-.9ZM9.2,30.2a1.9,1.9,0,1,1,1.9-1.9,1.84,1.84,0,0,1-1.9,1.9ZM22,29.3a1.9,1.9,0,1,1-1.9-1.9A1.84,1.84,0,0,1,22,29.3Zm-1.9-8.5A2.8,2.8,0,1,1,22.9,18a2.8,2.8,0,0,1-2.8,2.8Zm8.5,4.7a.9.9,0,1,1-.9-.9c.5-.1.9.4.9.9Zm1-14.7a1.9,1.9,0,1,1,1.9-1.9,1.9,1.9,0,0,1-1.9,1.9Z"/></g></g></svg>