<svg xmlns="http://www.w3.org/2000/svg" viewBox="0 0 28 28"><title>Asset 18</title><g id="Layer_2" data-name="Layer 2"><g id="Layer_1-2" data-name="Layer 1"><circle cx="14" cy="14" r="13.5" style="fill:#fff;stroke:#000;stroke-miterlimit:10"/><path d="M9.87,20.5S5.57,9.86,20.14,4.59c0,0-3.35,2.41-4.63,8.23C13.7,21.06,9.87,20.5,9.87,20.5" style="fill:#a4cdac"/><path d="M14.63,9.64s-.15.2-.39.55-.58.87-1,1.5c-.19.32-.39.66-.59,1s-.41.77-.62,1.18l-.31.63c-.1.22-.2.43-.3.66s-.2.45-.29.68-.18.46-.27.69-.17.47-.25.7-.15.47-.23.7-.14.47-.2.7-.12.46-.17.69c-.1.46-.18.9-.24,1.32l0,.32c0,.1,0,.21,0,.31s0,.4,0,.58l0,.54c0,.17,0,.34,0,.49s0,.15,0,.22l0,.21,0,.36c0,.22.06.39.07.51l0,.18a.32.32,0,1,0,.62-.1h0v0l0-.17c0-.11-.06-.27-.09-.47l0-.34,0-.19c0-.07,0-.14,0-.21s0-.3,0-.46v-.52c0-.18,0-.37,0-.56s0-.2,0-.3l0-.31c0-.41.1-.85.18-1.3,0-.22.09-.45.14-.68s.11-.46.17-.69.13-.46.19-.7.14-.47.22-.7.15-.46.24-.69.17-.46.26-.68.18-.44.27-.66l.28-.64c.19-.42.38-.82.57-1.2s.37-.73.55-1.05c.35-.65.67-1.17.89-1.54s.36-.57.36-.57" style="fill:#fff;stroke:#a4cdac;stroke-miterlimit:10;stroke-width:0.200000002980232px"/></g></g></svg>