<svg xmlns="http://www.w3.org/2000/svg" viewBox="0 0 24.47 33.39"><title>Asset 13</title><g id="Layer_2" data-name="Layer 2"><g id="Layer_1-2" data-name="Layer 1"><path d="M12.41,21.35a9.06,9.06,0,1,1,9.05-9.06A9.07,9.07,0,0,1,12.41,21.35ZM20,13.53a11.32,11.32,0,0,0-4.82-.33,33.21,33.21,0,0,1,1.5,5.52A7.75,7.75,0,0,0,20,13.53Zm-4.62,5.89a32.23,32.23,0,0,0-1.65-5.86l-.05,0a10.6,10.6,0,0,0-6.07,4.83,7.72,7.72,0,0,0,7.77,1ZM6.67,17.48A12.26,12.26,0,0,1,13,12.37l.3-.09c-.19-.44-.41-.88-.63-1.31a28.58,28.58,0,0,1-7.95,1.1c0,.08,0,.16,0,.24A7.71,7.71,0,0,0,6.67,17.48ZM4.84,10.72A28.87,28.87,0,0,0,12,9.78,49.48,49.48,0,0,0,9.12,5.31,7.76,7.76,0,0,0,4.84,10.72ZM10.6,4.79a41.29,41.29,0,0,1,2.89,4.53,8.75,8.75,0,0,0,4.05-2.79A7.72,7.72,0,0,0,10.6,4.79Zm7.8,2.63a10.3,10.3,0,0,1-4.32,3c.18.37.35.74.51,1.12l.17.4a18.14,18.14,0,0,1,5.38.25A7.7,7.7,0,0,0,18.4,7.42Z" style="fill:none;stroke:#000;stroke-linecap:round;stroke-linejoin:round"/><circle cx="12.24" cy="12.24" r="11.74" style="fill:none;stroke:#000;stroke-linecap:round;stroke-linejoin:round"/><text transform="translate(2.98 30.68)" style="font-size:7.42894983291626px;font-family:AmericanTypewriter, American Typewriter">exNet</text></g></g></svg>