<svg xmlns="http://www.w3.org/2000/svg" viewBox="0 0 24.53 34.23"><title>Asset 15</title><g id="Layer_2" data-name="Layer 2"><g id="Layer_1-2" data-name="Layer 1"><path d="M20.61,13.45a.57.57,0,0,0-.28.08L16.47,11a.49.49,0,0,0,0-.1.57.57,0,0,0-1.13,0,.48.48,0,0,0,0,.14l-3,2.28a.57.57,0,0,0-.37-.14.56.56,0,0,0-.34.12l-5.11-4a.59.59,0,1,0-.26.32l5.16,4a.56.56,0,1,0,1.12.06v0l3.06-2.33a.53.53,0,0,0,.6,0l3.82,2.56A.51.51,0,0,0,20,14a.57.57,0,1,0,.57-.54Z" style="fill:none;stroke:#000;stroke-linecap:round;stroke-linejoin:round;stroke-width:0.4px"/><path d="M20,17.62H6.72A2,2,0,0,1,4.56,16V6.4" style="fill:none;stroke:#000;stroke-linecap:round;stroke-linejoin:round"/><circle cx="12.27" cy="12.27" r="11.77" style="fill:none;stroke:#000;stroke-linecap:round;stroke-linejoin:round"/><text transform="translate(1.39 31.51)" style="font-size:7.448619842529297px;font-family:AmericanTypewriter, American Typewriter">exPlot</text></g></g></svg>