<svg xmlns="http://www.w3.org/2000/svg" viewBox="0 0 40.79 52.45"><title>galaxy</title><g id="Layer_2" data-name="Layer 2"><g id="Layer_1-2" data-name="Layer 1"><path d="M9.94,8.62a3.12,3.12,0,0,0-.73,6,5.73,5.73,0,0,0,2,.13h14c1.4,0,3.37.36,4.7-.09a3.11,3.11,0,0,0-.44-6,12.29,12.29,0,0,0-2.64-.07H14A30.57,30.57,0,0,0,9.94,8.62Z"/><path d="M9.94,16.4a3.14,3.14,0,0,0-1.4,5.7,4.79,4.79,0,0,0,2.79.51,33,33,0,0,0,5.58,0c2.62-.47,3.74-4,1.39-5.62a5.06,5.06,0,0,0-3.08-.59A36.83,36.83,0,0,0,9.94,16.4Z"/><path d="M22.42,24.18A3.15,3.15,0,0,0,21,29.88a4.65,4.65,0,0,0,2.79.5,29.53,29.53,0,0,0,5.94-.11,3.13,3.13,0,0,0,1-5.55,5.57,5.57,0,0,0-3.3-.59A34,34,0,0,0,22.42,24.18Z"/><circle cx="20.17" cy="19.5" r="19" style="fill:none;stroke:#000;stroke-linecap:round;stroke-linejoin:round"/><text transform="translate(0 48.07)" style="isolation:isolate;font-size:12px;font-family:AmericanTypewriter, American Typewriter">Galaxy</text></g></g></svg>